<svg width="512" height="169" viewBox="0 0 512 169" fill="none" xmlns="http://www.w3.org/2000/svg">
<rect width="168.579" height="168.579" rx="42.1446" fill="#6729F3"/>
<path d="M55.619 126.434C54.8656 126.434 54.1875 126.153 53.5848 125.591C52.982 124.949 52.6807 124.186 52.6807 123.303V45.2753C52.6807 44.3922 52.982 43.6698 53.5848 43.1078C54.1875 42.4656 54.8656 42.1445 55.619 42.1445H88.6183C95.173 42.1445 100.861 43.1881 105.683 45.2753C110.58 47.3624 114.385 50.5333 117.097 54.7879C119.81 59.0425 121.166 64.3808 121.166 70.8029C121.166 77.2249 119.81 82.5231 117.097 86.6974C114.385 90.7915 110.58 93.8018 105.683 95.7284C100.861 97.655 95.173 98.6183 88.6183 98.6183H77.8822V123.303C77.8822 124.186 77.5809 124.949 76.9782 125.591C76.4508 126.153 75.7727 126.434 74.9439 126.434H55.619ZM77.4302 79.2318H88.0533C90.2382 79.2318 92.084 78.5495 93.5909 77.1848C95.173 75.7398 95.9641 73.5322 95.9641 70.5621C95.9641 68.3143 95.3614 66.2673 94.1559 64.421C92.9505 62.5746 90.9162 61.6515 88.0533 61.6515H77.4302V79.2318Z" fill="white"/>
<path d="M58.2532 126.434C57.4998 126.434 56.8218 126.153 56.219 125.591C55.6163 124.949 55.3149 124.186 55.3149 123.303V45.2753C55.3149 44.3922 55.6163 43.6698 56.219 43.1078C56.8218 42.4656 57.4998 42.1445 58.2532 42.1445H91.2526C97.8073 42.1445 103.496 43.1881 108.317 45.2753C113.215 47.3624 117.019 50.5333 119.732 54.7879C122.444 59.0425 123.8 64.3808 123.8 70.8029C123.8 77.2249 122.444 82.5231 119.732 86.6974C117.019 90.7915 113.215 93.8018 108.317 95.7284C103.496 97.655 97.8073 98.6183 91.2526 98.6183H80.5165V123.303C80.5165 124.186 80.2152 124.949 79.6124 125.591C79.085 126.153 78.407 126.434 77.5782 126.434H58.2532ZM80.0645 79.2318H90.6876C92.8725 79.2318 94.7183 78.5495 96.2251 77.1848C97.8073 75.7398 98.5984 73.5322 98.5984 70.5621C98.5984 68.3143 97.9956 66.2673 96.7902 64.421C95.5847 62.5746 93.5505 61.6515 90.6876 61.6515H80.0645V79.2318Z" fill="white"/>
<path d="M258.452 75.7768C258.452 79.2045 257.665 82.3513 256.092 85.2172C254.519 88.0268 252.102 90.3026 248.843 92.0446C245.584 93.7866 241.538 94.6576 236.706 94.6576H227.771V115.898H213.357V56.7274H236.706C241.426 56.7274 245.415 57.5422 248.675 59.1718C251.934 60.8014 254.378 63.0491 256.008 65.9149C257.637 68.7808 258.452 72.068 258.452 75.7768ZM235.61 83.1942C238.363 83.1942 240.414 82.548 241.763 81.2556C243.112 79.9631 243.786 78.1369 243.786 75.7768C243.786 73.4167 243.112 71.5904 241.763 70.298C240.414 69.0055 238.363 68.3593 235.61 68.3593H227.771V83.1942H235.61Z" fill="black"/>
<path d="M294.867 68.3593C300.262 68.3593 304.588 70.1575 307.848 73.7538C311.107 77.294 312.736 82.1828 312.736 88.4202V115.898H298.407V90.3588C298.407 87.212 297.592 84.7676 295.963 83.0257C294.333 81.2837 292.142 80.4127 289.388 80.4127C286.635 80.4127 284.443 81.2837 282.814 83.0257C281.184 84.7676 280.369 87.212 280.369 90.3588V115.898H265.956V53.5244H280.369V75.1868C281.83 73.1076 283.825 71.4499 286.354 70.2137C288.883 68.9774 291.72 68.3593 294.867 68.3593Z" fill="black"/>
<path d="M344.162 116.573C339.554 116.573 335.396 115.589 331.687 113.623C328.035 111.656 325.141 108.846 323.005 105.194C320.926 101.541 319.887 97.2705 319.887 92.3818C319.887 87.5492 320.954 83.3066 323.09 79.6541C325.225 75.9454 328.147 73.1076 331.856 71.1409C335.564 69.1741 339.723 68.1907 344.33 68.1907C348.938 68.1907 353.097 69.1741 356.805 71.1409C360.514 73.1076 363.436 75.9454 365.571 79.6541C367.707 83.3066 368.774 87.5492 368.774 92.3818C368.774 97.2143 367.679 101.485 365.487 105.194C363.352 108.846 360.402 111.656 356.637 113.623C352.928 115.589 348.77 116.573 344.162 116.573ZM344.162 104.098C346.915 104.098 349.247 103.086 351.158 101.064C353.125 99.0406 354.108 96.1467 354.108 92.3818C354.108 88.6168 353.153 85.7229 351.242 83.7C349.388 81.677 347.084 80.6656 344.33 80.6656C341.521 80.6656 339.189 81.677 337.334 83.7C335.48 85.6667 334.553 88.5606 334.553 92.3818C334.553 96.1467 335.452 99.0406 337.25 101.064C339.105 103.086 341.408 104.098 344.162 104.098Z" fill="black"/>
<path d="M402.635 103.677V115.898H395.302C390.076 115.898 386.002 114.634 383.08 112.105C380.158 109.521 378.697 105.334 378.697 99.5463V80.8341H372.965V68.8651H378.697V57.4017H393.11V68.8651H402.551V80.8341H393.11V99.7149C393.11 101.12 393.447 102.131 394.122 102.749C394.796 103.367 395.92 103.677 397.493 103.677H402.635Z" fill="black"/>
<path d="M418.394 116.573C415.866 116.573 413.787 115.842 412.157 114.381C410.584 112.864 409.797 111.01 409.797 108.818C409.797 106.57 410.584 104.688 412.157 103.171C413.787 101.654 415.866 100.895 418.394 100.895C420.867 100.895 422.89 101.654 424.463 103.171C426.093 104.688 426.908 106.57 426.908 108.818C426.908 111.01 426.093 112.864 424.463 114.381C422.89 115.842 420.867 116.573 418.394 116.573Z" fill="black"/>
<path d="M472.274 105.447H450.191L446.65 115.898H431.563L452.972 56.7274H469.661L491.071 115.898H475.814L472.274 105.447ZM468.566 94.3204L461.232 72.6581L453.984 94.3204H468.566Z" fill="black"/>
<path d="M512 56.7274V115.898H497.587V56.7274H512Z" fill="black"/>
</svg>
